<?xml version="1.0" ?><svg data-name="Слой 1" id="Слой_1" viewBox="0 0 128 128" xmlns="http://www.w3.org/2000/svg"><title/><path d="M128.1,62.45a67.79,67.79,0,0,0-3.8-16.89s0-.07,0-.09a1.89,1.89,0,0,0-.21-.53C113.31,16.59,86.3,9.3,83.26,8.56c-1.56-.75-10-4.39-25.25-4a22.67,22.67,0,0,0-2.65.24l.43-.4a2,2,0,0,0,.32-2.53,2,2,0,0,0-2.43-.79A66.35,66.35,0,0,0,44.2,5.55c-3.84,2.43-7.5,5.29-8.55,6.12C31.64,13-.5,25-.5,62.64-.5,81.39,7,93.9,15,101.91a2,2,0,0,0,.77.75,53.8,53.8,0,0,0,18,11.65,2,2,0,0,0,2.28-.74,2,2,0,0,0-.05-2.39s-3.66-4.67-5.07-7a.75.75,0,0,1-.07-.12l.92.55A30.9,30.9,0,0,0,40.49,108a2,2,0,0,0,2-.79,2,2,0,0,0,.12-2.17l-3.3-5.73,39.07,13.22a94.1,94.1,0,0,1-14,9.86A2,2,0,0,0,63.5,125a2,2,0,0,0,2.43,1.13c.35-.11,8.14-2.43,12.91-4.22l-2,1.67a2,2,0,0,0-.47,2.52,2,2,0,0,0,1.76,1,2,2,0,0,0,.67-.12c.64-.22,15.75-5.53,22.21-9.19l.2-.12C121.53,106.14,130.58,87.56,128.1,62.45Zm-8.25-9.68c0,.26-.1.52-.16.77a9.79,9.79,0,0,0-1.85-3.17,2,2,0,0,0-3.43,1.18c-.18,1.49-.89,5.82-2,7.91-.16.3-.34.6-.52.9a29.66,29.66,0,0,0-.84-3.71,2,2,0,0,0-1.93-1.44h0a2,2,0,0,0-1.94,1.45,81.35,81.35,0,0,1-3.46,9.54,12.88,12.88,0,0,1-.82,1.49,16.39,16.39,0,0,0-1-4.89A2,2,0,0,0,100,61.55a2,2,0,0,0-1.88,1.22A30.63,30.63,0,0,1,93,70.36c-.89,1-1.76,1.83-2.6,2.59l0,0c-.55.49-1.09,1-1.59,1.35a52.36,52.36,0,0,0,.86-15.19,49.69,49.69,0,0,0,3.13-6.73c.08-.23.16-.47.23-.71.29,1,.5,1.57.51,1.62a2,2,0,0,0,3.69.31A49.74,49.74,0,0,0,100.09,47a11.94,11.94,0,0,0,.4-1.68,7,7,0,0,1,.24,1.16,2,2,0,0,0,1.61,1.84,2,2,0,0,0,2.21-1.09,26.36,26.36,0,0,0,2-6.83c0-.22.07-.46.09-.71a12.69,12.69,0,0,1,.71,1.23,2,2,0,0,0,3.65-.11,16.9,16.9,0,0,0,1.25-6.18,28.45,28.45,0,0,0-.18-3,53.56,53.56,0,0,1,8.31,14.76A21.8,21.8,0,0,1,119.85,52.77ZM83.71,94.48a2,2,0,0,0,2.15.88c.12,0,1.78-.41,4-1.13a53.16,53.16,0,0,1-6.11,12.55,23.29,23.29,0,0,1-2.11,2.65L13.26,86.3A49.47,49.47,0,0,1,11.72,80a48.85,48.85,0,0,1-.51-10.79,10.79,10.79,0,0,0,4.53,1.28,2,2,0,0,0,1.78-.84,2,2,0,0,0,.19-2c0-.1-4.18-9.69-2.14-18.16a20.08,20.08,0,0,1,1.5-4.17l6,8.77a12.68,12.68,0,0,0,2.25,3.27L40.89,80.06a2,2,0,0,0,1.66.87,1.83,1.83,0,0,0,.73-.14L85.81,64.4a42.87,42.87,0,0,1-2.27,13.79A2,2,0,0,0,84,80.38a2.06,2.06,0,0,0,1.39.55,2.09,2.09,0,0,0,.85-.18,25.13,25.13,0,0,0,3.59-2.19,16.59,16.59,0,0,1-1.29,5.25,42,42,0,0,1-4.74,8.37A2,2,0,0,0,83.71,94.48Zm-.22-45.71a48.77,48.77,0,0,1,2.19,11.38L43.32,76.49,29.37,56.18a7.67,7.67,0,0,1,2-1.91,11.77,11.77,0,0,0,4.76-4.06,1.62,1.62,0,0,0,.37-.19c.06-.05,6.15-4.58,12.11-6.27,4.52-1.28,11.42.33,17,1.62,1.58.37,3.07.72,4.41,1A75,75,0,0,0,83.1,47.7C83.24,48.05,83.37,48.4,83.49,48.77ZM29.68,50.63A8.87,8.87,0,0,0,27,52.75l-.37-.55a3.57,3.57,0,0,1-.31-1.32,7.94,7.94,0,0,1,.9-3.25,8.55,8.55,0,0,0,4.1.32,2.14,2.14,0,0,1,1.06.51A7.77,7.77,0,0,1,29.68,50.63Zm-5.87-12.4a28.41,28.41,0,0,1,.31,3.6v3.06a15.79,15.79,0,0,0-1,2.15l-3.64-5.31A15.05,15.05,0,0,1,23.81,38.23ZM46.37,8.92l.19-.12a2.36,2.36,0,0,0,.25.65,2,2,0,0,0,2.35.88A41.84,41.84,0,0,1,58.1,8.54c15.48-.39,23.45,3.64,23.53,3.68a1.91,1.91,0,0,0,.52.19,56.33,56.33,0,0,1,24.9,13.74,2.47,2.47,0,0,0,0,.38,42.54,42.54,0,0,1,1.09,8.11c0,.24,0,.47,0,.7L106,33.18a2.05,2.05,0,0,0-2.27-.41,2,2,0,0,0-1.17,2,29.87,29.87,0,0,1,0,5c0,.25-.09.49-.13.72a6.46,6.46,0,0,0-2.62-2.32,2,2,0,0,0-1.8.19,2,2,0,0,0-.92,1.54,34.56,34.56,0,0,1-.81,5.83c-.13.39-.27.77-.41,1.13a21.41,21.41,0,0,0-1.38-3.24,2,2,0,0,0-3.75.55c0,.05-.9,4.44-1.76,7-.11.33-.24.68-.39,1-.34-1.51-.74-3-1.25-4.63a22.59,22.59,0,0,0-1-2.64.54.54,0,0,0,0-.11C79,29,56.62,25.52,55.62,25.38a2,2,0,1,0-.6,3.95c.21,0,18.24,2.82,26,14.3a69.9,69.9,0,0,1-10.26-1.21c-1.27-.24-2.73-.58-4.27-.94-6-1.4-13.46-3.14-19-1.57a45.62,45.62,0,0,0-12,5.89A6.17,6.17,0,0,0,30.65,44a4.74,4.74,0,0,1-2.49-.29V41.83a46.43,46.43,0,0,0-.88-7.28c.19-4.1,1.58-7.07,4.84-10.31a32.81,32.81,0,0,0,6.17-9.54C39.42,13.81,42.86,11.15,46.37,8.92ZM32.46,17.23a22.65,22.65,0,0,1-3.19,4.19c-3.88,3.85-5.73,7.7-6,12.66C20.34,35.29,14,39,11.65,48.6c-1.44,6-.32,12.16.82,16.2-.34-.44-.73-1-1.08-1.47a2,2,0,0,0-3.64.73,50.72,50.72,0,0,0,0,16.57,55.15,55.15,0,0,0,2,8c-3.67-6.68-6.24-15.2-6.24-26C3.53,33.87,23.16,21.48,32.46,17.23Zm4.1,85.36a22.19,22.19,0,0,1-2.75-1.39c-2.77-1.66-6.36-3.63-6.51-3.71a2,2,0,0,0-2.3.24,2,2,0,0,0-.55,2.22,48.08,48.08,0,0,0,3,6.31c.18.29.38.61.6.94A50.43,50.43,0,0,1,18.45,100c-.34-.75-2-4.46-3.58-8.88L33.58,97.4ZM99.2,114.18l-.2.11a105.83,105.83,0,0,1-11.68,5.22,45.29,45.29,0,0,0,3.49-5.21,2,2,0,0,0-.46-2.52,2,2,0,0,0-2.58,0s-5,4.15-9.21,5.9A42.06,42.06,0,0,0,87.09,109a55.82,55.82,0,0,0,7.49-16.6c.26-.11.51-.23.77-.36a33.48,33.48,0,0,0,3.37-1.9,21.17,21.17,0,0,1-1,2.39,70.94,70.94,0,0,1-4,7,2,2,0,0,0,2.1,3.06,24,24,0,0,0,7.81-3.47c.69-.48,1.33-.94,1.92-1.4-.14.31-.3.62-.46.93a45.06,45.06,0,0,1-4,6.18,2,2,0,0,0-.08,2.38,2,2,0,0,0,1.66.86,2.29,2.29,0,0,0,.62-.1,50.36,50.36,0,0,0,9.12-4.31l.17-.1A52.94,52.94,0,0,1,99.2,114.18Zm20.34-20.82a1.94,1.94,0,0,0-1,.47,66.94,66.94,0,0,1-8.16,6.4c-.79.46-1.54.87-2.25,1.25.18-.32.36-.65.53-1a27.4,27.4,0,0,0,3.34-10.64,2,2,0,0,0-3.89-.8s-1.31,3-6.77,6.77c-.41.28-.82.53-1.22.77.38-.72.78-1.49,1.19-2.31a26.35,26.35,0,0,0,2.48-8.9,2,2,0,0,0-3.41-1.57,30.5,30.5,0,0,1-6.87,4.64A36.5,36.5,0,0,1,90,89.94c.71-1.29,1.49-2.81,2.24-4.55A22.09,22.09,0,0,0,93.9,75.22c.7-.67,1.41-1.39,2.13-2.2a37.44,37.44,0,0,0,2.76-3.44C98.56,71.49,98,74,98,74a2,2,0,0,0,1,2.17,2,2,0,0,0,2.38-.32,32.47,32.47,0,0,0,6-8c.22-.46.44-1,.65-1.46a2,2,0,0,0,3.52,1.15A37.07,37.07,0,0,0,116,61.33a15,15,0,0,0,1-2.46,17,17,0,0,1,.17,2,2,2,0,0,0,1.5,1.94,2,2,0,0,0,2.27-1,28.29,28.29,0,0,0,2.22-5.5c.4,2.08.74,4.24,1,6.52C125.25,74.57,123.72,84.77,119.54,93.36Z"/><path d="M33.83,35.89a4.76,4.76,0,0,0-.73,5.79,3.35,3.35,0,0,1,.15.35,2,2,0,0,0,4-.2,2.71,2.71,0,0,0-.1-.71H38a2,2,0,0,0,.75-3.86,12.4,12.4,0,0,1,1.71-.77A2,2,0,0,0,41.73,34a2,2,0,0,0-2.55-1.27A15.21,15.21,0,0,0,33.83,35.89Z"/></svg>